<svg width="1000" height="1000" xmlns="http://www.w3.org/2000/svg">
<text x="62.5" y="843.75" font-family="Chalkboard, cursive" font-size="56" fill="black">EuclidCam</text>
<rect x="50.0" y="221.8847050625473" width="556.2305898749054" height="556.2305898749054" fill="none" stroke="black" stroke-width="1" stroke-dasharray="2,2" />
<path d="M 50.0 778.1152949374527 A 556.2305898749054 556.2305898749054 0 0 1 606.2305898749054 221.8847050625473" fill="none" stroke="black" stroke-width="3" />
<rect x="606.2305898749054" y="221.8847050625473" width="343.7694101250946" height="343.7694101250946" fill="none" stroke="black" stroke-width="1" stroke-dasharray="2,2" />
<path d="M 606.2305898749054 221.8847050625473 A 343.7694101250946 343.7694101250946 0 0 1 950.0 565.654115187642" fill="none" stroke="black" stroke-width="3" />
<rect x="606.2305898749054" y="565.654115187642" width="212.46117974981075" height="212.46117974981075" fill="none" stroke="black" stroke-width="1" stroke-dasharray="2,2" />
<path d="M 950.0 565.654115187642 A 212.46117974981075 212.46117974981075 0 0 1 737.5388202501892 778.1152949374527" fill="none" stroke="black" stroke-width="3" />
<rect x="606.2305898749054" y="565.654115187642" width="131.30823037528387" height="131.30823037528387" fill="none" stroke="black" stroke-width="1" stroke-dasharray="2,2" />
<path d="M 737.5388202501892 778.1152949374527 A 131.30823037528387 131.30823037528387 0 0 1 606.2305898749054 646.8070645621689" fill="none" stroke="black" stroke-width="3" />
<rect x="606.2305898749054" y="565.654115187642" width="81.15294937452688" height="81.15294937452688" fill="none" stroke="black" stroke-width="1" stroke-dasharray="2,2" />
<path d="M 606.2305898749054 646.8070645621689 A 81.15294937452688 81.15294937452688 0 0 1 687.3835392494323 565.654115187642" fill="none" stroke="black" stroke-width="3" />
<rect x="687.3835392494323" y="565.654115187642" width="50.155281000756986" height="50.155281000756986" fill="none" stroke="black" stroke-width="1" stroke-dasharray="2,2" />
<path d="M 687.3835392494323 565.654115187642 A 50.155281000756986 50.155281000756986 0 0 1 737.5388202501892 615.809396188399" fill="none" stroke="black" stroke-width="3" />
<rect x="687.3835392494323" y="615.809396188399" width="30.997668373769898" height="30.997668373769898" fill="none" stroke="black" stroke-width="1" stroke-dasharray="2,2" />
<path d="M 737.5388202501892 615.809396188399 A 30.997668373769898 30.997668373769898 0 0 1 706.5411518764193 646.8070645621689" fill="none" stroke="black" stroke-width="3" />
<rect x="687.3835392494323" y="615.809396188399" width="19.15761262698709" height="19.15761262698709" fill="none" stroke="black" stroke-width="1" stroke-dasharray="2,2" />
<path d="M 706.5411518764193 646.8070645621689 A 19.15761262698709 19.15761262698709 0 0 1 687.3835392494323 627.6494519351818" fill="none" stroke="black" stroke-width="3" />
<rect x="687.3835392494323" y="615.809396188399" width="11.84005574678281" height="11.84005574678281" fill="none" stroke="black" stroke-width="1" stroke-dasharray="2,2" />
<path d="M 687.3835392494323 627.6494519351818 A 11.84005574678281 11.84005574678281 0 0 1 699.2235949962151 615.809396188399" fill="none" stroke="black" stroke-width="3" />
<rect x="699.2235949962151" y="615.809396188399" width="7.317556880204279" height="7.317556880204279" fill="none" stroke="black" stroke-width="1" stroke-dasharray="2,2" />
<path d="M 699.2235949962151 615.809396188399 A 7.317556880204279 7.317556880204279 0 0 1 706.5411518764193 623.1269530686033" fill="none" stroke="black" stroke-width="3" />
<rect x="699.2235949962151" y="623.1269530686033" width="4.52249886657853" height="4.52249886657853" fill="none" stroke="black" stroke-width="1" stroke-dasharray="2,2" />
<path d="M 706.5411518764193 623.1269530686033 A 4.52249886657853 4.52249886657853 0 0 1 702.0186530098408 627.6494519351818" fill="none" stroke="black" stroke-width="3" />
<rect x="699.2235949962151" y="623.1269530686033" width="2.7950580136257486" height="2.7950580136257486" fill="none" stroke="black" stroke-width="1" stroke-dasharray="2,2" />
<path d="M 702.0186530098408 627.6494519351818 A 2.7950580136257486 2.7950580136257486 0 0 1 699.2235949962151 624.854393921556" fill="none" stroke="black" stroke-width="3" />
</svg>